<svg width="74" height="66" viewBox="0 0 74 66" fill="none" xmlns="http://www.w3.org/2000/svg">
<path fill-rule="evenodd" clip-rule="evenodd" d="M64.3125 -1.33866e-07C66.0039 -5.99339e-08 67.375 1.37113 67.375 3.0625L67.375 12.25C67.375 13.9414 66.0039 15.3125 64.3125 15.3125L3.0625 15.3125C1.37113 15.3125 -6.09397e-07 13.9414 -5.35465e-07 12.25L-1.33866e-07 3.0625C-5.99339e-08 1.37113 1.37113 -2.88512e-06 3.0625 -2.81119e-06L64.3125 -1.33866e-07ZM61.25 6.125L6.125 6.125L6.125 9.1875L61.25 9.1875L61.25 6.125Z" fill="#E9EBF7"/>
<path d="M62.25 38.125C62.25 41.5077 59.5077 44.25 56.125 44.25C52.7423 44.25 50 41.5077 50 38.125C50 34.7423 52.7423 32 56.125 32C59.5077 32 62.25 34.7423 62.25 38.125Z" fill="#56B5C1"/>
<path fill-rule="evenodd" clip-rule="evenodd" d="M0 13.0625C0 11.3711 1.37113 10 3.0625 10H70.4375C72.1289 10 73.5 11.3711 73.5 13.0625V62.0625C73.5 63.7539 72.1289 65.125 70.4375 65.125H3.0625C1.37113 65.125 0 63.7539 0 62.0625V13.0625ZM6.125 16.125V59H67.375V16.125H6.125Z" fill="#E9EBF7"/>
</svg>
