<svg width="73" height="73" viewBox="0 0 73 73" fill="none" xmlns="http://www.w3.org/2000/svg">
<path fill-rule="evenodd" clip-rule="evenodd" d="M36.2812 8.0625C20.6965 8.0625 8.0625 20.6965 8.0625 36.2812C8.0625 51.866 20.6965 64.5 36.2812 64.5C51.866 64.5 64.5 51.866 64.5 36.2812C64.5 20.6965 51.866 8.0625 36.2812 8.0625ZM0 36.2812C0 16.2437 16.2437 0 36.2812 0C56.3188 0 72.5625 16.2437 72.5625 36.2812C72.5625 56.3188 56.3188 72.5625 36.2812 72.5625C16.2437 72.5625 0 56.3188 0 36.2812Z" fill="#56B5C1"/>
<path fill-rule="evenodd" clip-rule="evenodd" d="M35.0312 16C37.2576 16 39.0625 17.8049 39.0625 20.0312V34.4865L49.9755 45.3995C51.5498 46.9738 51.5498 49.5262 49.9755 51.1005C48.4012 52.6748 45.8488 52.6748 44.2745 51.1005L32.1807 39.0068C31.4247 38.2508 31 37.2254 31 36.1562V20.0312C31 17.8049 32.8049 16 35.0312 16Z" fill="#E9EBF7"/>
</svg>
